<svg xmlns="http://www.w3.org/2000/svg" width="6" height="12"><path d="M5.774.001L4.334 0c-1.616 0-2.66 1.158-2.66 2.953v1.361H.225c-.125 0-.226.11-.226.246v1.972c0 .135.101.245.226.245h1.447v4.978c0 .135.101.245.226.245h1.888c.125 0 .227-.11.227-.245V6.776h1.691c.125 0 .227-.11.227-.245V4.56a.258.258 0 00-.066-.174.22.22 0 00-.16-.072H4.014V3.16c0-.556.122-.837.79-.837h.97c.125 0 .226-.11.226-.245V.246C6 .11 5.899.002 5.774.001z"/><path fill="#d9d9d9" d="M5.774.001L4.334 0c-1.616 0-2.66 1.158-2.66 2.953v1.361H.225c-.125 0-.226.11-.226.246v1.972c0 .135.101.245.226.245h1.447v4.978c0 .135.101.245.226.245h1.888c.125 0 .227-.11.227-.245V6.776h1.691c.125 0 .227-.11.227-.245V4.56a.258.258 0 00-.066-.174.22.22 0 00-.16-.072H4.014V3.16c0-.556.122-.837.79-.837h.97c.125 0 .226-.11.226-.245V.246C6 .11 5.899.002 5.774.001z"/></svg>