<svg xmlns="http://www.w3.org/2000/svg" width="9" height="12"><path d="M8.282 7.115c-.21.3-.457.537-.727.72-.086.085-.176.16-.265.223-.585.411-1.43.682-2.146.54-.455-.09-.971-.343-1.355-.642l-.005.001c-.028.296-.14.612-.194.89-.078.397-.127.816-.257 1.2-.245.72-.7 1.3-1.144 1.904-.065.088-.228.048-.208-.065-.125-.174-.25-.62-.256-.65-.109-.594-.018-1.24.08-1.827.22-1.31.546-2.672 1.029-3.912-.454-.282-.147-1.378.024-1.72.28-.561 1.251-1.319 1.733-.485.398.689-.022 1.674-.2 2.37-.115.453-.212.947.092 1.357.269.363.738.413 1.143.287 1.231-.383 1.645-1.655 1.693-2.861.038-.961-.022-2.234-.81-2.914-1.142-.987-2.925-.185-3.896.671-1.099.97-1.864 2.537-.737 3.795.076.004.15.056.142.15-.02.242-.108.456-.191.683-.04.106-.127.16-.237.137a1.692 1.692 0 01-1.04-.645C-.692 4.622.353 2.124 1.832.999c1.735-1.32 4.345-1.435 5.89.277 1.361 1.504 1.772 4.115.56 5.839zM1.585 6.24a.14.14 0 010 .055l.045.056.02-.043a.198.198 0 01-.03-.027l-.035-.041zM.88 2.836a.166.166 0 01-.05-.014c-.104.214-.19.435-.252.664.08-.213.175-.418.289-.619l.013-.031zm6.969-.697a3.863 3.863 0 00-.196-.278l.024.075.018.02a.232.232 0 01.063.057c.032.042.061.083.09.126z"/><path fill="#d9d9d9" d="M8.282 7.115c-.21.3-.457.537-.727.72-.086.085-.176.16-.265.223-.585.411-1.43.682-2.146.54-.455-.09-.971-.343-1.355-.642l-.005.001c-.028.296-.14.612-.194.89-.078.397-.127.816-.257 1.2-.245.72-.7 1.3-1.144 1.904-.065.088-.228.048-.208-.065-.125-.174-.25-.62-.256-.65-.109-.594-.018-1.24.08-1.827.22-1.31.546-2.672 1.029-3.912-.454-.282-.147-1.378.024-1.72.28-.561 1.251-1.319 1.733-.485.398.689-.022 1.674-.2 2.37-.115.453-.212.947.092 1.357.269.363.738.413 1.143.287 1.231-.383 1.645-1.655 1.693-2.861.038-.961-.022-2.234-.81-2.914-1.142-.987-2.925-.185-3.896.671-1.099.97-1.864 2.537-.737 3.795.076.004.15.056.142.15-.02.242-.108.456-.191.683-.04.106-.127.16-.237.137a1.692 1.692 0 01-1.04-.645C-.692 4.622.353 2.124 1.832.999c1.735-1.32 4.345-1.435 5.89.277 1.361 1.504 1.772 4.115.56 5.839zM1.585 6.24a.14.14 0 010 .055l.045.056.02-.043a.198.198 0 01-.03-.027l-.035-.041zM.88 2.836a.166.166 0 01-.05-.014c-.104.214-.19.435-.252.664.08-.213.175-.418.289-.619l.013-.031zm6.969-.697a3.863 3.863 0 00-.196-.278l.024.075.018.02a.232.232 0 01.063.057c.032.042.061.083.09.126z"/></svg>