<svg xmlns="http://www.w3.org/2000/svg" width="12" height="12"><path d="M12 9a2.89 2.89 0 01-.878 2.12A2.888 2.888 0 019 12a2.92 2.92 0 01-1.828-.626A5.733 5.733 0 016 11.5a5.401 5.401 0 01-2.137-.433 5.486 5.486 0 01-1.758-1.173A5.497 5.497 0 01.933 8.136 5.41 5.41 0 01.499 6c0-.38.042-.771.125-1.172A2.923 2.923 0 010 2.998C0 2.17.292 1.463.88.877A2.89 2.89 0 013-.002a2.92 2.92 0 011.829.626A5.73 5.73 0 016 .498c.745 0 1.457.144 2.137.433a5.5 5.5 0 011.758 1.172 5.498 5.498 0 011.172 1.759c.29.68.434 1.391.434 2.137 0 .38-.042.77-.125 1.171.416.543.625 1.152.625 1.83zM9.166 7.304a1.715 1.715 0 00-.531-1.25 2.457 2.457 0 00-.571-.384 4.492 4.492 0 00-.645-.266 9.317 9.317 0 00-.683-.18l-.813-.186-.344-.082a2.598 2.598 0 01-.273-.09.767.767 0 01-.235-.125.657.657 0 01-.129-.164.458.458 0 01-.058-.235c0-.401.375-.601 1.125-.601.224 0 .424.031.602.093.177.063.317.137.421.224.105.085.204.172.297.26.094.09.198.165.313.227a.77.77 0 00.375.094.752.752 0 00.59-.25.874.874 0 00.222-.601c0-.287-.145-.546-.437-.778-.292-.231-.662-.407-1.11-.527a5.48 5.48 0 00-1.422-.18 4.4 4.4 0 00-1.031.12 3.6 3.6 0 00-.934.37 1.87 1.87 0 00-.695.679 1.9 1.9 0 00-.262 1.003c0 .319.05.595.149.833.099.236.244.433.437.589.193.157.401.283.625.38.224.095.493.18.805.253l1.141.28c.469.116.76.21.875.283.167.104.25.26.25.469 0 .203-.104.37-.312.504-.209.133-.482.199-.82.199a1.92 1.92 0 01-.716-.125 1.63 1.63 0 01-.508-.3 6.664 6.664 0 01-.355-.352 1.864 1.864 0 00-.36-.302.775.775 0 00-.422-.125c-.26 0-.457.078-.59.235a.873.873 0 00-.199.586c0 .478.318.89.953 1.23.636.342 1.394.512 2.274.512.38 0 .745-.048 1.094-.144.349-.096.668-.236.957-.419a2.051 2.051 0 00.95-1.757z"/><path fill="#d9d9d9" d="M12 9a2.89 2.89 0 01-.878 2.12A2.888 2.888 0 019 12a2.92 2.92 0 01-1.828-.626A5.733 5.733 0 016 11.5a5.401 5.401 0 01-2.137-.433 5.486 5.486 0 01-1.758-1.173A5.497 5.497 0 01.933 8.136 5.41 5.41 0 01.499 6c0-.38.042-.771.125-1.172A2.923 2.923 0 010 2.998C0 2.17.292 1.463.88.877A2.89 2.89 0 013-.002a2.92 2.92 0 011.829.626A5.73 5.73 0 016 .498c.745 0 1.457.144 2.137.433a5.5 5.5 0 011.758 1.172 5.498 5.498 0 011.172 1.759c.29.68.434 1.391.434 2.137 0 .38-.042.77-.125 1.171.416.543.625 1.152.625 1.83zM9.166 7.304a1.715 1.715 0 00-.531-1.25 2.457 2.457 0 00-.571-.384 4.492 4.492 0 00-.645-.266 9.317 9.317 0 00-.683-.18l-.813-.186-.344-.082a2.598 2.598 0 01-.273-.09.767.767 0 01-.235-.125.657.657 0 01-.129-.164.458.458 0 01-.058-.235c0-.401.375-.601 1.125-.601.224 0 .424.031.602.093.177.063.317.137.421.224.105.085.204.172.297.26.094.09.198.165.313.227a.77.77 0 00.375.094.752.752 0 00.59-.25.874.874 0 00.222-.601c0-.287-.145-.546-.437-.778-.292-.231-.662-.407-1.11-.527a5.48 5.48 0 00-1.422-.18 4.4 4.4 0 00-1.031.12 3.6 3.6 0 00-.934.37 1.87 1.87 0 00-.695.679 1.9 1.9 0 00-.262 1.003c0 .319.05.595.149.833.099.236.244.433.437.589.193.157.401.283.625.38.224.095.493.18.805.253l1.141.28c.469.116.76.21.875.283.167.104.25.26.25.469 0 .203-.104.37-.312.504-.209.133-.482.199-.82.199a1.92 1.92 0 01-.716-.125 1.63 1.63 0 01-.508-.3 6.664 6.664 0 01-.355-.352 1.864 1.864 0 00-.36-.302.775.775 0 00-.422-.125c-.26 0-.457.078-.59.235a.873.873 0 00-.199.586c0 .478.318.89.953 1.23.636.342 1.394.512 2.274.512.38 0 .745-.048 1.094-.144.349-.096.668-.236.957-.419a2.051 2.051 0 00.95-1.757z"/></svg>