<svg xmlns="http://www.w3.org/2000/svg" width="15" height="12"><path d="M15 1.42c-.558.24-1.152.4-1.772.477A3.02 3.02 0 0014.581.223c-.595.35-1.25.596-1.95.734a3.103 3.103 0 00-2.246-.958C8.682 0 7.31 1.36 7.31 3.027c0 .241.021.471.072.69A8.75 8.75 0 011.044.552c-.265.453-.42.971-.42 1.53 0 1.048.548 1.978 1.365 2.517A3.077 3.077 0 01.6 4.224v.034c0 1.47 1.066 2.694 2.464 2.976a3.13 3.13 0 01-.807.098 2.74 2.74 0 01-.582-.051A3.1 3.1 0 004.55 9.39a6.245 6.245 0 01-3.813 1.29c-.252 0-.494-.011-.736-.042A8.754 8.754 0 004.717 12c5.66 0 8.753-4.615 8.753-8.616a8.27 8.27 0 00-.011-.391A6.097 6.097 0 0015 1.419z"/><path fill="#fff" d="M15 1.42c-.558.24-1.152.4-1.772.477A3.02 3.02 0 0014.581.223c-.595.35-1.25.596-1.95.734a3.103 3.103 0 00-2.246-.958C8.682 0 7.31 1.36 7.31 3.027c0 .241.021.471.072.69A8.75 8.75 0 011.044.552c-.265.453-.42.971-.42 1.53 0 1.048.548 1.978 1.365 2.517A3.077 3.077 0 01.6 4.224v.034c0 1.47 1.066 2.694 2.464 2.976a3.13 3.13 0 01-.807.098 2.74 2.74 0 01-.582-.051A3.1 3.1 0 004.55 9.39a6.245 6.245 0 01-3.813 1.29c-.252 0-.494-.011-.736-.042A8.754 8.754 0 004.717 12c5.66 0 8.753-4.615 8.753-8.616a8.27 8.27 0 00-.011-.391A6.097 6.097 0 0015 1.419z"/></svg>